<svg width="32" height="33" viewBox="0 0 32 33" fill="none" xmlns="http://www.w3.org/2000/svg">
<g clip-path="url(#clip0_123_201)">
<path d="M16 32.9469C24.8366 32.9469 32 25.7818 32 16.9431C32 8.10438 24.8366 0.939209 16 0.939209C7.16344 0.939209 0 8.10438 0 16.9431C0 25.7818 7.16344 32.9469 16 32.9469Z" fill="#F8D24E"/>
<path d="M20.4456 16.9246H17.8355V26.5455H13.8808V16.9246H12V13.5435H13.8808V11.3555C13.8808 9.79089 14.6196 7.34082 17.8707 7.34082L20.8 7.35315V10.6351H18.6746C18.3259 10.6351 17.8357 10.8104 17.8357 11.5567V13.5467H20.7911L20.4456 16.9246Z" fill="#84A178"/>
</g>
<defs>
<clipPath id="clip0_123_201">
<rect width="32" height="32.0077" fill="white" transform="translate(0 0.939209)"/>
</clipPath>
</defs>
</svg>
