<svg width="33" height="33" viewBox="0 0 33 33" fill="none" xmlns="http://www.w3.org/2000/svg">
<g clip-path="url(#clip0_123_208)">
<ellipse cx="16.2354" cy="16.9431" rx="16" ry="16.0039" fill="#F8D24E"/>
<path d="M13.1023 19.3191L12.7847 23.4894C13.2391 23.4894 13.4359 23.3072 13.6719 23.0884L15.8023 21.1877L20.2169 24.2056C21.0265 24.6269 21.5969 24.4051 21.8153 23.5103L24.713 10.8349L24.7138 10.8342C24.9706 9.71689 24.2809 9.27999 23.4921 9.55408L6.45972 15.6416C5.2973 16.0628 5.3149 16.6678 6.26212 16.9419L10.6166 18.2063L20.7313 12.298C21.2073 12.0037 21.6401 12.1665 21.2841 12.4608L13.1023 19.3191Z" fill="#84A178"/>
</g>
<defs>
<clipPath id="clip0_123_208">
<rect width="32" height="32.0077" fill="white" transform="translate(0.235352 0.939209)"/>
</clipPath>
</defs>
</svg>
