<!-- Generated by IcoMoon.io -->
<svg version="1.1" xmlns="http://www.w3.org/2000/svg" width="31" height="32" viewBox="0 0 31 32">
<title>cow</title>
<path fill="#f8d24e" d="M15.686 0.144c8.663 0 15.686 7.023 15.686 15.686v0.008c0 8.663-7.023 15.686-15.686 15.686s-15.686-7.023-15.686-15.686v-0.008c0-8.663 7.023-15.686 15.686-15.686z"></path>
<path fill="#131313" d="M8.746 4.528c-0.184 0.159-0.71 1.257-0.899 1.857-0.225 0.743-0.302 1.3-0.271 2.069 0.041 1.098 0.317 1.931 0.925 2.801 0.158 0.228 0.286 0.424 0.286 0.44 0 0.011-0.097 0.021-0.22 0.021-0.526 0-1.513 0.175-2.269 0.403-1.201 0.361-1.906 0.992-1.906 1.697 0 0.249 0.225 0.674 0.465 0.891 0.465 0.419 1.482 0.817 2.576 1.008 0.378 0.069 1.502 0.186 1.753 0.191 0.046 0 0.061 0.244 0.061 1.045 0 0.69 0.026 1.225 0.077 1.554 0.184 1.178 0.756 2.424 1.513 3.305l0.261 0.302-0.174 0.281c-0.255 0.398-0.353 0.7-0.383 1.151-0.077 1.082 0.598 2.042 1.901 2.716 2.484 1.289 6.342 0.785 7.788-1.018 0.705-0.881 0.787-1.888 0.23-2.801l-0.174-0.281 0.312-0.377c0.583-0.7 0.961-1.4 1.247-2.286 0.24-0.753 0.332-1.48 0.332-2.631 0-0.525 0.015-0.96 0.041-0.96 0.235-0.005 1.364-0.127 1.722-0.191 1.099-0.191 2.095-0.583 2.576-1.008 0.24-0.217 0.465-0.642 0.465-0.891 0-0.785-0.797-1.422-2.279-1.804-0.485-0.127-1.4-0.281-1.845-0.308l-0.21-0.016 0.23-0.318c0.286-0.387 0.644-1.14 0.782-1.634 0.388-1.427 0.148-3.087-0.685-4.673-0.348-0.658-0.588-0.812-0.869-0.552-0.107 0.101-0.153 0.239-0.256 0.737-0.317 1.586-0.905 2.843-1.763 3.771l-0.378 0.414h-8.085l-0.337-0.366c-0.838-0.923-1.446-2.228-1.763-3.819-0.102-0.499-0.148-0.637-0.256-0.737-0.169-0.154-0.332-0.149-0.521 0.016zM9.4 7.673c0.271 0.594 0.608 1.151 1.007 1.666l0.317 0.408-0.332 0.249c-0.312 0.239-0.603 0.578-0.828 0.965l-0.097 0.175-0.245-0.334c-0.838-1.156-1.048-2.573-0.603-4.042 0.215-0.711 0.21-0.706 0.404-0.090 0.092 0.297 0.266 0.748 0.378 1.003zM22.703 6.554c0.209 0.631 0.291 1.135 0.291 1.788 0 0.965-0.256 1.782-0.792 2.514l-0.24 0.329-0.179-0.302c-0.209-0.371-0.567-0.759-0.894-0.981-0.138-0.090-0.245-0.18-0.245-0.191 0-0.016 0.097-0.138 0.22-0.271 0.567-0.631 1.175-1.766 1.477-2.742 0.092-0.302 0.184-0.552 0.199-0.552s0.092 0.186 0.163 0.408zM20.091 10.432c0.567 0.239 1.109 0.923 1.196 1.501 0.046 0.318 0.153 0.52 0.291 0.552 0.061 0.011 0.485 0.048 0.94 0.080 1.615 0.106 2.887 0.451 3.429 0.923 0.25 0.223 0.225 0.408-0.077 0.637-0.603 0.456-1.906 0.801-3.235 0.859-0.879 0.037-1.063 0.064-1.18 0.186-0.087 0.090-0.097 0.186-0.097 1.146 0 1.3-0.066 2.048-0.23 2.652-0.23 0.822-0.685 1.697-1.216 2.318l-0.22 0.255-0.455-0.271c-0.552-0.329-1.068-0.541-1.686-0.684-1.937-0.462-4.078-0.18-5.519 0.727l-0.332 0.212-0.21-0.249c-0.286-0.334-0.736-1.050-0.915-1.453-0.393-0.912-0.511-1.655-0.511-3.289 0-1.586 0.082-1.469-1.094-1.533-1.502-0.080-2.647-0.35-3.368-0.806-0.532-0.339-0.445-0.642 0.296-0.997 0.71-0.345 1.686-0.552 3.041-0.637 1.053-0.069 1.078-0.085 1.175-0.594 0.143-0.769 0.71-1.406 1.426-1.607 0.179-0.053 1.181-0.064 4.247-0.058l4.012 0.011 0.291 0.122zM17.219 21.412c1.252 0.308 2.187 0.881 2.591 1.591 0.097 0.164 0.138 0.334 0.158 0.594 0.020 0.324 0.005 0.403-0.118 0.668-0.567 1.204-2.652 2-4.773 1.819-2.55-0.212-4.226-1.634-3.567-3.029 0.358-0.753 1.569-1.475 2.847-1.687 0.21-0.032 0.419-0.069 0.46-0.080s0.501-0.011 1.022 0c0.71 0.016 1.053 0.048 1.38 0.122z"></path>
<path fill="#131313" d="M12.15 13.089c-0.317 0.106-0.531 0.244-0.818 0.53-0.25 0.239-0.271 0.52-0.061 0.69 0.194 0.159 0.378 0.138 0.613-0.069 0.296-0.26 0.526-0.366 0.813-0.366 0.286-0.005 0.506 0.095 0.813 0.366 0.235 0.207 0.419 0.228 0.613 0.069 0.102-0.085 0.133-0.154 0.133-0.313 0-0.164-0.036-0.239-0.215-0.419-0.506-0.509-1.257-0.706-1.891-0.488z"></path>
<path fill="#131313" d="M18.109 13.084c-0.327 0.122-0.746 0.398-0.915 0.605-0.163 0.202-0.169 0.43 0 0.599 0.169 0.18 0.373 0.17 0.618-0.032 0.603-0.499 1.053-0.515 1.61-0.053 0.143 0.122 0.307 0.217 0.358 0.217 0.25 0 0.455-0.223 0.455-0.488 0-0.17-0.424-0.562-0.807-0.748-0.424-0.207-0.93-0.244-1.318-0.101z"></path>
<path fill="#131313" d="M12.891 22.903c-0.148 0.143-0.199 0.35-0.123 0.515 0.056 0.133 0.143 0.186 0.496 0.281 0.158 0.042 0.225 0.095 0.281 0.228 0.072 0.175 0.077 0.175 0.47 0.191l0.393 0.016v-0.149c-0.005-0.212-0.123-0.52-0.276-0.732-0.179-0.244-0.491-0.403-0.843-0.435-0.24-0.021-0.302-0.011-0.399 0.085z"></path>
<path fill="#131313" d="M17.771 22.866c-0.256 0.069-0.623 0.414-0.726 0.684-0.046 0.122-0.092 0.339-0.097 0.483-0.010 0.228 0.010 0.281 0.133 0.393 0.302 0.265 0.7 0.058 0.7-0.366 0-0.207 0.153-0.35 0.424-0.403 0.286-0.053 0.388-0.17 0.393-0.44 0-0.355-0.317-0.493-0.828-0.35z"></path>
</svg>
