<!-- Generated by IcoMoon.io -->
<svg version="1.1" xmlns="http://www.w3.org/2000/svg" width="31" height="32" viewBox="0 0 31 32">
<title>github</title>
<path fill="#f8d24e" d="M31.030 16.43c0 8.571-6.946 15.519-15.515 15.519s-15.515-6.948-15.515-15.519c0-8.571 6.946-15.519 15.515-15.519s15.515 6.948 15.515 15.519z"></path>
<path fill="#84a178" d="M15.515 7.301c-5.013 0-9.127 4.115-9.127 9.129 0 4.279 3.002 8.165 6.988 9.129v-3.020c-0.395 0.087-0.758 0.089-1.16-0.030-0.539-0.159-0.978-0.519-1.303-1.067-0.207-0.35-0.575-0.729-0.958-0.701l-0.094-1.066c0.829-0.071 1.546 0.505 1.972 1.221 0.189 0.318 0.407 0.505 0.686 0.587 0.27 0.079 0.56 0.041 0.898-0.078 0.085-0.677 0.395-0.93 0.629-1.286v-0c-2.377-0.355-3.325-1.616-3.701-2.612-0.498-1.322-0.231-2.974 0.65-4.017 0.017-0.020 0.048-0.074 0.036-0.111-0.404-1.221 0.088-2.23 0.106-2.338 0.466 0.138 0.542-0.139 2.025 0.763l0.256 0.154c0.107 0.064 0.073 0.027 0.181 0.019 0.619-0.168 1.272-0.261 1.915-0.269 0.648 0.008 1.297 0.101 1.942 0.276l0.083 0.008c-0.007-0.001 0.023-0.005 0.073-0.035 1.853-1.123 1.786-0.756 2.283-0.917 0.018 0.107 0.504 1.133 0.104 2.339-0.054 0.166 1.606 1.687 0.686 4.128-0.376 0.996-1.323 2.257-3.7 2.612v0c0.305 0.465 0.671 0.712 0.669 1.67v3.77c3.986-0.963 6.988-4.85 6.988-9.129 0-5.014-4.114-9.129-9.126-9.129v0z"></path>
</svg>
