<!-- Generated by IcoMoon.io -->
<svg version="1.1" xmlns="http://www.w3.org/2000/svg" width="31" height="32" viewBox="0 0 31 32">
<title>ice-crema</title>
<path fill="#f8d24e" d="M15.686 0c8.663 0 15.686 7.023 15.686 15.686v0.008c0 8.663-7.023 15.686-15.686 15.686s-15.686-7.023-15.686-15.686v-0.008c0-8.663 7.023-15.686 15.686-15.686z"></path>
<path fill="#000" d="M15.763 4.468c0.057 0.151 0.17 0.884 0.17 1.111 0 0.562-0.208 1.087-0.591 1.498-0.317 0.34-0.633 0.529-1.394 0.836-0.846 0.345-1.196 0.553-1.592 0.945-0.402 0.402-0.638 0.841-0.723 1.356-0.095 0.562 0 0.959 0.288 1.186l0.146 0.113-0.232 0.146c-0.468 0.307-1.318 1.030-1.465 1.252-0.284 0.425-0.255 0.822 0.066 0.983l0.151 0.076-0.17 0.161c-0.255 0.241-0.307 0.406-0.269 0.841 0.024 0.288 0.014 0.444-0.052 0.68-0.080 0.307-0.080 0.312 0.024 0.529 0.104 0.213 0.397 0.482 0.662 0.595 0.128 0.057 0.132 0.076 0.161 0.51 0.014 0.25 0.038 1.049 0.057 1.777 0.014 0.728 0.047 1.394 0.076 1.474 0.024 0.085 0.113 0.198 0.194 0.255 0.274 0.189 0.463 0.392 0.586 0.629 0.137 0.269 0.288 0.931 0.747 3.218l0.321 1.607 0.199 0.189c0.378 0.373 1.101 0.543 2.292 0.543 1.196 0 1.909-0.165 2.287-0.539l0.203-0.194 0.293-1.488c0.647-3.256 0.704-3.436 1.21-3.837 0.156-0.128 0.307-0.284 0.335-0.354 0.033-0.080 0.066-0.699 0.090-1.635 0.019-0.832 0.047-1.654 0.066-1.829l0.028-0.317 0.307-0.232c0.387-0.298 0.539-0.567 0.539-0.983-0.005-0.491-0.326-1.030-0.912-1.512l-0.279-0.227 0.137-0.194c0.572-0.789 0.213-1.881-0.851-2.608l-0.321-0.222 0.118-0.123c0.524-0.562 0.61-2.24 0.17-3.407-0.265-0.695-0.87-1.451-1.611-2.008-0.364-0.274-1.366-0.879-1.456-0.879-0.019 0-0.019 0.033-0.005 0.076zM17.124 6.117c0.25 0.246 0.553 0.581 0.671 0.751 0.704 0.983 0.884 2.216 0.458 3.124-0.17 0.369-0.68 0.917-1.153 1.243-0.723 0.501-2.349 1.342-3.483 1.805-1.824 0.742-2.883 0.884-3.005 0.397-0.047-0.184 0.090-0.331 0.671-0.718 0.525-0.359 2.878-2.108 2.92-2.178 0.014-0.019-0.227 0.090-0.529 0.241-1.025 0.52-1.512 0.421-1.489-0.302 0.014-0.525 0.392-1.12 0.917-1.46 0.132-0.085 0.543-0.274 0.921-0.425 1.243-0.501 1.621-0.756 2.041-1.385 0.25-0.373 0.525-1.063 0.543-1.356 0.005-0.104 0.024-0.184 0.038-0.184s0.227 0.203 0.477 0.449zM18.414 11.485c0.345 0.194 0.704 0.525 0.86 0.784 0.274 0.468 0.132 0.936-0.458 1.531-0.643 0.652-1.739 1.276-2.944 1.673-1.111 0.364-2.174 0.534-3.695 0.586l-0.945 0.033 0.614 0.038c0.794 0.052 2.33 0.005 2.925-0.090 1.583-0.25 2.93-0.751 3.894-1.441 0.217-0.156 0.444-0.284 0.506-0.284 0.156 0 0.836 0.652 0.974 0.926 0.076 0.156 0.095 0.269 0.080 0.421-0.071 0.629-0.836 0.964-2.684 1.186-2.259 0.269-5.212 0.005-6.474-0.576-0.595-0.274-0.695-0.43-0.543-0.846 0.047-0.132 0.057-0.288 0.038-0.51-0.024-0.293-0.019-0.331 0.085-0.439 0.236-0.255 0.633-0.402 2.089-0.77 0.51-0.132 1.205-0.34 1.536-0.463 0.803-0.293 2.311-1.054 3.010-1.522 0.657-0.435 0.751-0.454 1.134-0.236zM12.138 17.269c0.992 0.288 1.871 0.373 3.506 0.34 1.229-0.024 1.985-0.099 3.076-0.293 0.222-0.038 0.416-0.071 0.44-0.071 0.052 0 0.038 1.815-0.019 2.292-0.061 0.506-0.198 0.898-0.345 0.992-0.151 0.099-0.907 0.203-1.919 0.26-2.075 0.113-4.206 0-4.867-0.265-0.359-0.146-0.397-0.335-0.402-2.089 0-1.167 0.009-1.328 0.071-1.304 0.038 0.014 0.246 0.076 0.458 0.137zM13.258 21.286c0.34 0.043 0.709 0.085 0.822 0.099l0.203 0.024-0.18 0.198c-0.232 0.25-0.586 0.751-0.714 1.007-0.146 0.293-0.194 0.312-0.411 0.194l-0.184-0.104-0.104-0.643c-0.057-0.35-0.118-0.685-0.132-0.742-0.043-0.123-0.085-0.123 0.699-0.033zM18.296 21.234c0 0.009-0.024 0.132-0.047 0.269-0.028 0.142-0.146 0.912-0.265 1.715-0.241 1.678-0.402 2.467-0.548 2.731-0.203 0.354-0.69 0.562-1.479 0.628-0.307 0.024-1.233-0.038-1.285-0.085-0.038-0.043 0.775-1.049 0.903-1.115 0.118-0.066 0.151-0.057 0.553 0.151 0.468 0.246 0.704 0.283 0.704 0.128s-0.123-0.307-0.425-0.515c-0.279-0.198-0.378-0.312-0.378-0.444 0-0.038 0.137-0.25 0.302-0.473s0.406-0.576 0.529-0.789l0.232-0.383 0.213 0.028c0.43 0.061 0.543 0.057 0.529-0.038-0.009-0.047-0.090-0.184-0.18-0.298-0.090-0.118-0.161-0.236-0.161-0.26 0-0.090 0.439-0.917 0.581-1.092 0.123-0.151 0.222-0.227 0.222-0.161zM15.342 21.612c0.236 0.156 1.125 0.926 1.181 1.021 0.024 0.043-0.888 1.47-1.068 1.673-0.019 0.024-0.118-0.024-0.217-0.099-0.099-0.080-0.468-0.335-0.822-0.567l-0.638-0.421 0.383-0.647c0.68-1.139 0.666-1.12 0.813-1.12 0.076 0 0.241 0.071 0.369 0.161zM17.133 21.782c-0.165 0.203-0.302 0.331-0.359 0.331-0.123 0-0.321-0.109-0.657-0.354l-0.279-0.203 0.558-0.033c0.302-0.014 0.595-0.033 0.647-0.043 0.378-0.061 0.378-0.057 0.090 0.302zM13.561 24.055c0.435 0.17 1.172 0.572 1.385 0.751 0.151 0.123 0.151 0.132 0.090 0.283-0.038 0.085-0.165 0.312-0.293 0.506-0.123 0.189-0.265 0.425-0.317 0.525-0.151 0.293-0.198 0.317-0.51 0.232-0.335-0.099-0.515-0.269-0.61-0.576-0.128-0.43-0.331-1.645-0.307-1.834 0.009-0.071 0.208-0.028 0.562 0.113z"></path>
</svg>
