<!-- Generated by IcoMoon.io -->
<svg version="1.1" xmlns="http://www.w3.org/2000/svg" width="32" height="32" viewBox="0 0 32 32">
<title>telegram</title>
<path fill="#f8d24e" d="M31.259 16.43c0 8.571-6.946 15.519-15.515 15.519s-15.515-6.948-15.515-15.519c0-8.571 6.946-15.519 15.515-15.519s15.515 6.948 15.515 15.519z"></path>
<path fill="#84a178" d="M12.705 18.734l-0.308 4.044c0.441 0 0.631-0.177 0.86-0.389l2.066-1.843 4.281 2.926c0.785 0.409 1.338 0.193 1.55-0.674l2.811-12.292c0.249-1.083-0.42-1.507-1.185-1.241l-16.516 5.903c-1.127 0.408-1.11 0.995-0.192 1.261l4.223 1.226 9.808-5.729c0.462-0.285 0.881-0.127 0.536 0.158l-7.934 6.65z"></path>
</svg>
