<svg width="32" height="33" viewBox="0 0 32 33" fill="none" xmlns="http://www.w3.org/2000/svg">
<ellipse cx="16" cy="16.9431" rx="16" ry="16.0039" fill="#F8D24E"/>
<path d="M15.9997 7.52905C10.8302 7.52905 6.58789 11.7724 6.58789 16.9431C6.58789 21.3555 9.68331 25.3637 13.7938 26.3571V23.2426C13.3865 23.3318 13.0117 23.3344 12.5971 23.2121C12.0408 23.0479 11.5889 22.6773 11.2534 22.1122C11.0396 21.7514 10.6606 21.3601 10.2652 21.3888L10.1683 20.2899C11.0232 20.2167 11.7628 20.8109 12.2018 21.5487C12.3969 21.8768 12.6213 22.0691 12.9094 22.1542C13.1879 22.2362 13.4869 22.1968 13.8353 22.0737C13.9227 21.376 14.2423 21.1149 14.4837 20.7471V20.7466C12.0322 20.3808 11.0552 19.08 10.6675 18.0532C10.1536 16.6898 10.4294 14.9866 11.338 13.9103C11.3557 13.8893 11.3876 13.8344 11.3752 13.7961C10.9586 12.5373 11.4663 11.496 11.4849 11.3855C11.9657 11.5277 12.0439 11.2425 13.5735 12.172L13.8379 12.3309C13.9484 12.3968 13.9137 12.3592 14.0243 12.3508C14.6629 12.1773 15.3362 12.0815 15.9995 12.0729C16.6679 12.0815 17.3368 12.1773 18.0019 12.3579L18.0875 12.3665C18.08 12.3654 18.1108 12.361 18.1623 12.3303C20.0731 11.1727 20.0044 11.551 20.5168 11.3844C20.5354 11.495 21.0363 12.5532 20.6241 13.7961C20.5685 13.9673 22.2807 15.5355 21.3317 18.0528C20.9439 19.08 19.9671 20.3808 17.5156 20.7466V20.7471C17.8298 21.2262 18.2074 21.481 18.2054 22.4693V26.3571C22.316 25.3637 25.4113 21.3555 25.4113 16.9431C25.4114 11.7724 21.1691 7.52905 15.9997 7.52905V7.52905Z" fill="#84A178"/>
</svg>
